{
    "asset" : {
        "generator" : "Khronos glTF Blender I/O v1.3.48",
        "version" : "2.0"
    },
    "scene" : 0,
    "scenes" : [
        {
            "name" : "Scene",
            "nodes" : [
                0,
                1,
                2,
                3,
                4,
                5,
                6,
                7
            ]
        }
    ],
    "nodes" : [
        {
            "name" : "Light",
            "rotation" : [
                0.16907575726509094,
                0.7558803558349609,
                -0.27217137813568115,
                0.570947527885437
            ],
            "translation" : [
                4.090697288513184,
                6.071627616882324,
                -1.0307987928390503
            ]
        },
        {
            "name" : "Camera",
            "rotation" : [
                0.483536034822464,
                0.33687159419059753,
                -0.20870360732078552,
                0.7804827094078064
            ],
            "translation" : [
                7.358891487121582,
                4.958309173583984,
                6.925790786743164
            ]
        },
        {
            "mesh" : 0,
            "name" : "Circle",
            "scale" : [
                0.18900001049041748,
                0.18900001049041748,
                0.18900001049041748
            ],
            "translation" : [
                0.014452002942562103,
                0.1677657812833786,
                -0.025344854220747948
            ]
        },
        {
            "mesh" : 1,
            "name" : "Circle.001",
            "scale" : [
                0.18900001049041748,
                0.18900001049041748,
                0.18900001049041748
            ],
            "translation" : [
                0.014452002942562103,
                0.22578075528144836,
                -0.025344854220747948
            ]
        },
        {
            "mesh" : 2,
            "name" : "Circle.002",
            "scale" : [
                0.18900001049041748,
                0.18900001049041748,
                0.18900001049041748
            ],
            "translation" : [
                0.014452002942562103,
                0.1677657812833786,
                -0.025344854220747948
            ]
        },
        {
            "name" : "Camera.003",
            "rotation" : [
                0.48170700669288635,
                0.3342514932155609,
                -0.21292176842689514,
                0.7816000580787659
            ],
            "translation" : [
                14.762710571289062,
                10.437015533447266,
                8.116979598999023
            ]
        },
        {
            "mesh" : 3,
            "name" : "Cylinder.024",
            "rotation" : [
                -0.4999999701976776,
                0.4999997913837433,
                0.5000000596046448,
                -0.5000001788139343
            ],
            "scale" : [
                0.75,
                1.5,
                0.75
            ],
            "translation" : [
                4.32020902633667,
                -0.20525996387004852,
                -0.18440648913383484
            ]
        },
        {
            "mesh" : 4,
            "name" : "Circle.003",
            "scale" : [
                0.18900001049041748,
                0.18900001049041748,
                0.18900001049041748
            ],
            "translation" : [
                0.014452002942562103,
                0.22578075528144836,
                -0.025344854220747948
            ]
        }
    ],
    "materials" : [
        {
            "doubleSided" : true,
            "name" : "plastic_dull_bl",
            "pbrMetallicRoughness" : {}
        },
        {
            "doubleSided" : true,
            "emissiveFactor" : [
                0,
                0,
                0
            ],
            "name" : "Material.002",
            "pbrMetallicRoughness" : {
                "baseColorFactor" : [
                    1,
                    1,
                    1,
                    1
                ],
                "metallicFactor" : 0,
                "roughnessFactor" : 0.5
            }
        },
        {
            "doubleSided" : true,
            "emissiveFactor" : [
                0,
                0,
                0
            ],
            "name" : "Material.001",
            "pbrMetallicRoughness" : {
                "baseColorFactor" : [
                    1,
                    1,
                    1,
                    1
                ],
                "metallicFactor" : 0,
                "roughnessFactor" : 0.5
            }
        }
    ],
    "meshes" : [
        {
            "name" : "Circle.002",
            "primitives" : [
                {
                    "attributes" : {
                        "POSITION" : 0,
                        "NORMAL" : 1,
                        "TEXCOORD_0" : 2
                    },
                    "indices" : 3,
                    "material" : 0
                }
            ]
        },
        {
            "name" : "Circle.003",
            "primitives" : [
                {
                    "attributes" : {
                        "POSITION" : 4,
                        "NORMAL" : 5,
                        "TEXCOORD_0" : 6
                    },
                    "indices" : 7,
                    "material" : 1
                }
            ]
        },
        {
            "name" : "Circle.004",
            "primitives" : [
                {
                    "attributes" : {
                        "POSITION" : 8,
                        "NORMAL" : 9,
                        "TEXCOORD_0" : 10
                    },
                    "indices" : 11,
                    "material" : 2
                }
            ]
        },
        {
            "name" : "Cylinder.026",
            "primitives" : [
                {
                    "attributes" : {
                        "POSITION" : 12,
                        "NORMAL" : 13
                    },
                    "indices" : 14,
                    "material" : 0
                }
            ]
        },
        {
            "name" : "Circle.005",
            "primitives" : [
                {
                    "attributes" : {
                        "POSITION" : 15,
                        "NORMAL" : 16,
                        "TEXCOORD_0" : 17
                    },
                    "indices" : 18,
                    "material" : 1
                }
            ]
        }
    ],
    "accessors" : [
        {
            "bufferView" : 0,
            "componentType" : 5126,
            "count" : 912,
            "max" : [
                0.9898215532302856,
                1.9921964406967163,
                1
            ],
            "min" : [
                -0.9898214340209961,
                0,
                -1
            ],
            "type" : "VEC3"
        },
        {
            "bufferView" : 1,
            "componentType" : 5126,
            "count" : 912,
            "type" : "VEC3"
        },
        {
            "bufferView" : 2,
            "componentType" : 5126,
            "count" : 912,
            "type" : "VEC2"
        },
        {
            "bufferView" : 3,
            "componentType" : 5123,
            "count" : 1452,
            "type" : "SCALAR"
        },
        {
            "bufferView" : 4,
            "componentType" : 5126,
            "count" : 1019,
            "max" : [
                0.2051563411951065,
                2.0931010246276855,
                0.20726607739925385
            ],
            "min" : [
                -0.5919469594955444,
                0.20714649558067322,
                -0.2072657197713852
            ],
            "type" : "VEC3"
        },
        {
            "bufferView" : 5,
            "componentType" : 5126,
            "count" : 1019,
            "type" : "VEC3"
        },
        {
            "bufferView" : 6,
            "componentType" : 5126,
            "count" : 1019,
            "type" : "VEC2"
        },
        {
            "bufferView" : 7,
            "componentType" : 5123,
            "count" : 1584,
            "type" : "SCALAR"
        },
        {
            "bufferView" : 8,
            "componentType" : 5126,
            "count" : 1298,
            "max" : [
                1.310229778289795,
                0.8427830338478088,
                0.20048528909683228
            ],
            "min" : [
                0.19662971794605255,
                0.4458940327167511,
                -0.20048494637012482
            ],
            "type" : "VEC3"
        },
        {
            "bufferView" : 9,
            "componentType" : 5126,
            "count" : 1298,
            "type" : "VEC3"
        },
        {
            "bufferView" : 10,
            "componentType" : 5126,
            "count" : 1298,
            "type" : "VEC2"
        },
        {
            "bufferView" : 11,
            "componentType" : 5123,
            "count" : 2112,
            "type" : "SCALAR"
        },
        {
            "bufferView" : 12,
            "componentType" : 5126,
            "count" : 36,
            "max" : [
                -0.6147991418838501,
                0.13303297758102417,
                5.9174485206604
            ],
            "min" : [
                -0.7075841426849365,
                0.07946361601352692,
                5.888877868652344
            ],
            "type" : "VEC3"
        },
        {
            "bufferView" : 13,
            "componentType" : 5126,
            "count" : 36,
            "type" : "VEC3"
        },
        {
            "bufferView" : 14,
            "componentType" : 5123,
            "count" : 60,
            "type" : "SCALAR"
        },
        {
            "bufferView" : 15,
            "componentType" : 5126,
            "count" : 1036,
            "max" : [
                0.2150798887014389,
                2.0989925861358643,
                0.21727125346660614
            ],
            "min" : [
                -0.5919469594955444,
                0.20714649558067322,
                -0.21702493727207184
            ],
            "type" : "VEC3"
        },
        {
            "bufferView" : 16,
            "componentType" : 5126,
            "count" : 1036,
            "type" : "VEC3"
        },
        {
            "bufferView" : 17,
            "componentType" : 5126,
            "count" : 1036,
            "type" : "VEC2"
        },
        {
            "bufferView" : 18,
            "componentType" : 5123,
            "count" : 1584,
            "type" : "SCALAR"
        }
    ],
    "bufferViews" : [
        {
            "buffer" : 0,
            "byteLength" : 10944,
            "byteOffset" : 0
        },
        {
            "buffer" : 0,
            "byteLength" : 10944,
            "byteOffset" : 10944
        },
        {
            "buffer" : 0,
            "byteLength" : 7296,
            "byteOffset" : 21888
        },
        {
            "buffer" : 0,
            "byteLength" : 2904,
            "byteOffset" : 29184
        },
        {
            "buffer" : 0,
            "byteLength" : 12228,
            "byteOffset" : 32088
        },
        {
            "buffer" : 0,
            "byteLength" : 12228,
            "byteOffset" : 44316
        },
        {
            "buffer" : 0,
            "byteLength" : 8152,
            "byteOffset" : 56544
        },
        {
            "buffer" : 0,
            "byteLength" : 3168,
            "byteOffset" : 64696
        },
        {
            "buffer" : 0,
            "byteLength" : 15576,
            "byteOffset" : 67864
        },
        {
            "buffer" : 0,
            "byteLength" : 15576,
            "byteOffset" : 83440
        },
        {
            "buffer" : 0,
            "byteLength" : 10384,
            "byteOffset" : 99016
        },
        {
            "buffer" : 0,
            "byteLength" : 4224,
            "byteOffset" : 109400
        },
        {
            "buffer" : 0,
            "byteLength" : 432,
            "byteOffset" : 113624
        },
        {
            "buffer" : 0,
            "byteLength" : 432,
            "byteOffset" : 114056
        },
        {
            "buffer" : 0,
            "byteLength" : 120,
            "byteOffset" : 114488
        },
        {
            "buffer" : 0,
            "byteLength" : 12432,
            "byteOffset" : 114608
        },
        {
            "buffer" : 0,
            "byteLength" : 12432,
            "byteOffset" : 127040
        },
        {
            "buffer" : 0,
            "byteLength" : 8288,
            "byteOffset" : 139472
        },
        {
            "buffer" : 0,
            "byteLength" : 3168,
            "byteOffset" : 147760
        }
    ],
    "buffers" : [
        {
            "byteLength" : 150928,
            "uri" : "data:application/octet-stream;base64,"
        }
    ]
}
