# Blender v2.80 (sub 75) OBJ File: 'Lab-Desk.blend'
# www.blender.org
mtllib Lab-Desk.mtl
o Cube
v 2.616866 4.786366 -1.669300
v 2.616866 -4.786366 -1.669300
v 2.616866 4.786366 1.669300
v 2.616866 -4.786366 1.669300
v -6.955866 4.786366 -1.669300
v -6.955866 -4.786366 -1.669300
v -6.955866 4.786366 1.669300
v -6.955866 -4.786366 1.669300
v 2.616866 -4.786366 -101.827301
v -6.955866 -4.786366 -101.827301
v 2.616866 4.786366 -101.827301
v -6.955866 4.786366 -101.827301
vt 0.375000 0.000000
vt 0.625000 0.000000
vt 0.625000 0.250000
vt 0.375000 0.250000
vt 0.375000 0.250000
vt 0.625000 0.250000
vt 0.625000 0.500000
vt 0.375000 0.500000
vt 0.625000 0.750000
vt 0.375000 0.750000
vt 0.625000 0.750000
vt 0.625000 1.000000
vt 0.375000 1.000000
vt 0.125000 0.500000
vt 0.375000 0.500000
vt 0.375000 0.750000
vt 0.125000 0.750000
vt 0.625000 0.750000
vt 0.375000 0.750000
vt 0.625000 0.500000
vt 0.875000 0.500000
vt 0.875000 0.750000
vt 0.625000 0.750000
vt 0.375000 0.000000
vt 0.625000 0.000000
vt 0.125000 0.500000
vt 0.375000 0.500000
vn 0.0000 1.0000 0.0000
vn 0.0000 0.0000 1.0000
vn -1.0000 0.0000 0.0000
vn 0.0000 -1.0000 0.0000
vn 1.0000 0.0000 0.0000
vn 0.0000 0.0000 -1.0000
usemtl Material
s off
f 1/1/1 5/2/1 7/3/1 3/4/1
f 4/5/2 3/6/2 7/7/2 8/8/2
f 8/8/3 7/7/3 5/9/3 6/10/3
f 6/10/4 2/11/4 4/12/4 8/13/4
f 2/14/5 1/15/5 3/16/5 4/17/5
f 6/10/3 5/9/3 12/18/3 10/19/3
f 10/20/6 12/21/6 11/22/6 9/23/6
f 2/11/4 6/10/4 10/19/4 9/23/4
f 5/2/1 1/1/1 11/24/1 12/25/1
f 1/15/5 2/14/5 9/26/5 11/27/5
o Cube.001_Cube.007
v 104.064178 4.786366 -1.669300
v 104.064178 -4.786366 -1.669300
v 104.064178 4.786366 1.669300
v 104.064178 -4.786366 1.669300
v 94.491440 4.786366 -1.669300
v 94.491440 -4.786366 -1.669300
v 94.491440 4.786366 1.669300
v 94.491440 -4.786366 1.669300
v 104.064178 -4.786366 -101.827301
v 94.491440 -4.786366 -101.827301
v 104.064178 4.786366 -101.827301
v 94.491440 4.786366 -101.827301
vt 0.375000 0.000000
vt 0.625000 0.000000
vt 0.625000 0.250000
vt 0.375000 0.250000
vt 0.375000 0.250000
vt 0.625000 0.250000
vt 0.625000 0.500000
vt 0.375000 0.500000
vt 0.625000 0.750000
vt 0.375000 0.750000
vt 0.625000 0.750000
vt 0.625000 1.000000
vt 0.375000 1.000000
vt 0.125000 0.500000
vt 0.375000 0.500000
vt 0.375000 0.750000
vt 0.125000 0.750000
vt 0.625000 0.750000
vt 0.375000 0.750000
vt 0.625000 0.500000
vt 0.875000 0.500000
vt 0.875000 0.750000
vt 0.625000 0.750000
vt 0.375000 0.000000
vt 0.625000 0.000000
vt 0.125000 0.500000
vt 0.375000 0.500000
vn 0.0000 1.0000 0.0000
vn 0.0000 0.0000 1.0000
vn -1.0000 0.0000 0.0000
vn 0.0000 -1.0000 0.0000
vn 1.0000 0.0000 0.0000
vn 0.0000 0.0000 -1.0000
usemtl Material.007
s off
f 13/28/7 17/29/7 19/30/7 15/31/7
f 16/32/8 15/33/8 19/34/8 20/35/8
f 20/35/9 19/34/9 17/36/9 18/37/9
f 18/37/10 14/38/10 16/39/10 20/40/10
f 14/41/11 13/42/11 15/43/11 16/44/11
f 18/37/9 17/36/9 24/45/9 22/46/9
f 22/47/12 24/48/12 23/49/12 21/50/12
f 14/38/10 18/37/10 22/46/10 21/50/10
f 17/29/7 13/28/7 23/51/7 24/52/7
f 13/42/11 14/41/11 21/53/11 23/54/11
o Cube.002_Cube.008
v 306.313690 4.786366 -1.669300
v 306.313690 -4.786366 -1.669300
v 306.313690 4.786366 1.669300
v 306.313690 -4.786366 1.669300
v 296.740936 4.786366 -1.669300
v 296.740936 -4.786366 -1.669300
v 296.740936 4.786366 1.669300
v 296.740936 -4.786366 1.669300
v 306.313690 -4.786366 -101.827301
v 296.740936 -4.786366 -101.827301
v 306.313690 4.786366 -101.827301
v 296.740936 4.786366 -101.827301
vt 0.375000 0.000000
vt 0.625000 0.000000
vt 0.625000 0.250000
vt 0.375000 0.250000
vt 0.375000 0.250000
vt 0.625000 0.250000
vt 0.625000 0.500000
vt 0.375000 0.500000
vt 0.625000 0.750000
vt 0.375000 0.750000
vt 0.625000 0.750000
vt 0.625000 1.000000
vt 0.375000 1.000000
vt 0.125000 0.500000
vt 0.375000 0.500000
vt 0.375000 0.750000
vt 0.125000 0.750000
vt 0.625000 0.750000
vt 0.375000 0.750000
vt 0.625000 0.500000
vt 0.875000 0.500000
vt 0.875000 0.750000
vt 0.625000 0.750000
vt 0.375000 0.000000
vt 0.625000 0.000000
vt 0.125000 0.500000
vt 0.375000 0.500000
vn 0.0000 1.0000 0.0000
vn 0.0000 0.0000 1.0000
vn -1.0000 0.0000 0.0000
vn 0.0000 -1.0000 0.0000
vn 1.0000 0.0000 0.0000
vn 0.0000 0.0000 -1.0000
usemtl Material.008
s off
f 25/55/13 29/56/13 31/57/13 27/58/13
f 28/59/14 27/60/14 31/61/14 32/62/14
f 32/62/15 31/61/15 29/63/15 30/64/15
f 30/64/16 26/65/16 28/66/16 32/67/16
f 26/68/17 25/69/17 27/70/17 28/71/17
f 30/64/15 29/63/15 36/72/15 34/73/15
f 34/74/18 36/75/18 35/76/18 33/77/18
f 26/65/16 30/64/16 34/73/16 33/77/16
f 29/56/13 25/55/13 35/78/13 36/79/13
f 25/69/17 26/68/17 33/80/17 35/81/17
o Cube.003_Cube.009
v 393.655701 -4.786366 -94.088425
v 393.655701 -4.786366 -103.661156
v 407.018616 -4.786366 -94.088417
v 407.018616 -4.786366 -103.661148
v 393.655701 4.786366 -94.088425
v 393.655701 4.786366 -103.661156
v 407.018616 4.786366 -94.088417
v 407.018616 4.786366 -103.661148
v -7.231506 -4.786348 -103.661171
v -7.231506 4.786384 -103.661171
v -7.231506 -4.786348 -94.088440
v -7.231506 4.786384 -94.088440
vt 0.375000 0.000000
vt 0.375000 0.250000
vt 0.625000 0.250000
vt 0.625000 0.000000
vt 0.375000 0.250000
vt 0.375000 0.500000
vt 0.625000 0.500000
vt 0.625000 0.250000
vt 0.375000 0.750000
vt 0.625000 0.750000
vt 0.375000 1.000000
vt 0.625000 1.000000
vt 0.625000 0.750000
vt 0.125000 0.500000
vt 0.125000 0.750000
vt 0.375000 0.750000
vt 0.375000 0.500000
vt 0.375000 0.750000
vt 0.625000 0.750000
vt 0.625000 0.500000
vt 0.625000 0.750000
vt 0.875000 0.750000
vt 0.875000 0.500000
vt 0.625000 0.000000
vt 0.375000 0.000000
vt 0.375000 0.500000
vt 0.125000 0.500000
vn -0.0000 0.0000 1.0000
vn 1.0000 0.0000 0.0000
vn 0.0000 1.0000 0.0000
vn 0.0000 0.0000 -1.0000
vn -0.0000 -1.0000 0.0000
vn -1.0000 0.0000 0.0000
usemtl Material.009
s off
f 37/82/19 39/83/19 43/84/19 41/85/19
f 40/86/20 44/87/20 43/88/20 39/89/20
f 44/87/21 42/90/21 41/91/21 43/88/21
f 42/90/22 44/92/22 40/93/22 38/94/22
f 38/95/23 40/96/23 39/97/23 37/98/23
f 42/90/21 46/99/21 48/100/21 41/91/21
f 46/101/24 45/102/24 47/103/24 48/104/24
f 38/94/22 45/102/22 46/99/22 42/90/22
f 41/85/19 48/105/19 47/106/19 37/82/19
f 37/98/23 47/107/23 45/108/23 38/95/23
o Cube.004_Cube.010
v 406.645996 1.669300 -93.539810
v 406.645996 1.669300 -103.112549
v 406.645996 -1.669300 -93.539810
v 406.645996 -1.669300 -103.112549
v 397.073242 1.669300 -93.539810
v 397.073242 1.669300 -103.112549
v 397.073242 -1.669300 -93.539810
v 397.073242 -1.669300 -103.112549
v 406.645996 101.827301 -103.112541
v 397.073242 101.827301 -103.112541
v 406.645996 101.827301 -93.539810
v 397.073242 101.827301 -93.539810
vt 0.375000 0.000000
vt 0.625000 0.000000
vt 0.625000 0.250000
vt 0.375000 0.250000
vt 0.375000 0.250000
vt 0.625000 0.250000
vt 0.625000 0.500000
vt 0.375000 0.500000
vt 0.625000 0.750000
vt 0.375000 0.750000
vt 0.625000 0.750000
vt 0.625000 1.000000
vt 0.375000 1.000000
vt 0.125000 0.500000
vt 0.375000 0.500000
vt 0.375000 0.750000
vt 0.125000 0.750000
vt 0.625000 0.750000
vt 0.375000 0.750000
vt 0.625000 0.500000
vt 0.875000 0.500000
vt 0.875000 0.750000
vt 0.625000 0.750000
vt 0.375000 0.000000
vt 0.625000 0.000000
vt 0.125000 0.500000
vt 0.375000 0.500000
vn 0.0000 0.0000 1.0000
vn 0.0000 -1.0000 -0.0000
vn -1.0000 0.0000 0.0000
vn 0.0000 0.0000 -1.0000
vn 1.0000 0.0000 0.0000
vn 0.0000 1.0000 0.0000
usemtl Material.010
s off
f 49/109/25 53/110/25 55/111/25 51/112/25
f 52/113/26 51/114/26 55/115/26 56/116/26
f 56/116/27 55/115/27 53/117/27 54/118/27
f 54/118/28 50/119/28 52/120/28 56/121/28
f 50/122/29 49/123/29 51/124/29 52/125/29
f 54/118/27 53/117/27 60/126/27 58/127/27
f 58/128/30 60/129/30 59/130/30 57/131/30
f 50/119/28 54/118/28 58/127/28 57/131/28
f 53/110/25 49/109/25 59/132/25 60/133/25
f 49/123/29 50/122/29 57/134/29 59/135/29
o Cube.005_Cube.011
v 406.822266 5.364719 -0.617117
v 406.822266 -4.208013 -0.617117
v 406.822266 5.364719 2.721483
v 406.822266 -4.208013 2.721483
v 397.249512 5.364719 -0.617117
v 397.249512 -4.208013 -0.617117
v 397.249512 5.364719 2.721483
v 397.249512 -4.208013 2.721483
v 406.822266 -4.208013 -100.775116
v 397.249512 -4.208013 -100.775116
v 406.822266 5.364719 -100.775116
v 397.249512 5.364719 -100.775116
vt 0.375000 0.000000
vt 0.625000 0.000000
vt 0.625000 0.250000
vt 0.375000 0.250000
vt 0.375000 0.250000
vt 0.625000 0.250000
vt 0.625000 0.500000
vt 0.375000 0.500000
vt 0.625000 0.750000
vt 0.375000 0.750000
vt 0.625000 0.750000
vt 0.625000 1.000000
vt 0.375000 1.000000
vt 0.125000 0.500000
vt 0.375000 0.500000
vt 0.375000 0.750000
vt 0.125000 0.750000
vt 0.625000 0.750000
vt 0.375000 0.750000
vt 0.625000 0.500000
vt 0.875000 0.500000
vt 0.875000 0.750000
vt 0.625000 0.750000
vt 0.375000 0.000000
vt 0.625000 0.000000
vt 0.125000 0.500000
vt 0.375000 0.500000
vn 0.0000 1.0000 0.0000
vn 0.0000 0.0000 1.0000
vn -1.0000 0.0000 0.0000
vn 0.0000 -1.0000 0.0000
vn 1.0000 0.0000 0.0000
vn 0.0000 0.0000 -1.0000
usemtl Material.011
s off
f 61/136/31 65/137/31 67/138/31 63/139/31
f 64/140/32 63/141/32 67/142/32 68/143/32
f 68/143/33 67/142/33 65/144/33 66/145/33
f 66/145/34 62/146/34 64/147/34 68/148/34
f 62/149/35 61/150/35 63/151/35 64/152/35
f 66/145/33 65/144/33 72/153/33 70/154/33
f 70/155/36 72/156/36 71/157/36 69/158/36
f 62/146/34 66/145/34 70/154/34 69/158/34
f 65/137/31 61/136/31 71/159/31 72/160/31
f 61/150/35 62/149/35 69/161/35 71/162/35
o Cube.006_Cube.012
v 306.533081 1.669300 -93.539810
v 306.533081 1.669300 -103.112549
v 306.533081 -1.669300 -93.539810
v 306.533081 -1.669300 -103.112549
v 296.960327 1.669300 -93.539810
v 296.960327 1.669300 -103.112549
v 296.960327 -1.669300 -93.539810
v 296.960327 -1.669300 -103.112549
v 306.533081 101.827301 -103.112541
v 296.960327 101.827301 -103.112541
v 306.533081 101.827301 -93.539810
v 296.960327 101.827301 -93.539810
vt 0.375000 0.000000
vt 0.625000 0.000000
vt 0.625000 0.250000
vt 0.375000 0.250000
vt 0.375000 0.250000
vt 0.625000 0.250000
vt 0.625000 0.500000
vt 0.375000 0.500000
vt 0.625000 0.750000
vt 0.375000 0.750000
vt 0.625000 0.750000
vt 0.625000 1.000000
vt 0.375000 1.000000
vt 0.125000 0.500000
vt 0.375000 0.500000
vt 0.375000 0.750000
vt 0.125000 0.750000
vt 0.625000 0.750000
vt 0.375000 0.750000
vt 0.625000 0.500000
vt 0.875000 0.500000
vt 0.875000 0.750000
vt 0.625000 0.750000
vt 0.375000 0.000000
vt 0.625000 0.000000
vt 0.125000 0.500000
vt 0.375000 0.500000
vn 0.0000 0.0000 1.0000
vn 0.0000 -1.0000 -0.0000
vn -1.0000 0.0000 0.0000
vn 0.0000 0.0000 -1.0000
vn 1.0000 0.0000 0.0000
vn 0.0000 1.0000 0.0000
usemtl Material.012
s off
f 73/163/37 77/164/37 79/165/37 75/166/37
f 76/167/38 75/168/38 79/169/38 80/170/38
f 80/170/39 79/169/39 77/171/39 78/172/39
f 78/172/40 74/173/40 76/174/40 80/175/40
f 74/176/41 73/177/41 75/178/41 76/179/41
f 78/172/39 77/171/39 84/180/39 82/181/39
f 82/182/42 84/183/42 83/184/42 81/185/42
f 74/173/40 78/172/40 82/181/40 81/185/40
f 77/164/37 73/163/37 83/186/37 84/187/37
f 73/177/41 74/176/41 81/188/41 83/189/41
o Cube.007_Cube.013
v 103.843788 1.669300 -93.539810
v 103.843788 1.669300 -103.112549
v 103.843788 -1.669300 -93.539810
v 103.843788 -1.669300 -103.112549
v 94.271049 1.669300 -93.539810
v 94.271049 1.669300 -103.112549
v 94.271049 -1.669300 -93.539810
v 94.271049 -1.669300 -103.112549
v 103.843788 101.827301 -103.112541
v 94.271049 101.827301 -103.112541
v 103.843788 101.827301 -93.539810
v 94.271049 101.827301 -93.539810
vt 0.375000 0.000000
vt 0.625000 0.000000
vt 0.625000 0.250000
vt 0.375000 0.250000
vt 0.375000 0.250000
vt 0.625000 0.250000
vt 0.625000 0.500000
vt 0.375000 0.500000
vt 0.625000 0.750000
vt 0.375000 0.750000
vt 0.625000 0.750000
vt 0.625000 1.000000
vt 0.375000 1.000000
vt 0.125000 0.500000
vt 0.375000 0.500000
vt 0.375000 0.750000
vt 0.125000 0.750000
vt 0.625000 0.750000
vt 0.375000 0.750000
vt 0.625000 0.500000
vt 0.875000 0.500000
vt 0.875000 0.750000
vt 0.625000 0.750000
vt 0.375000 0.000000
vt 0.625000 0.000000
vt 0.125000 0.500000
vt 0.375000 0.500000
vn 0.0000 0.0000 1.0000
vn 0.0000 -1.0000 -0.0000
vn -1.0000 0.0000 0.0000
vn 0.0000 0.0000 -1.0000
vn 1.0000 0.0000 0.0000
vn 0.0000 1.0000 0.0000
usemtl Material.013
s off
f 85/190/43 89/191/43 91/192/43 87/193/43
f 88/194/44 87/195/44 91/196/44 92/197/44
f 92/197/45 91/196/45 89/198/45 90/199/45
f 90/199/46 86/200/46 88/201/46 92/202/46
f 86/203/47 85/204/47 87/205/47 88/206/47
f 90/199/45 89/198/45 96/207/45 94/208/45
f 94/209/48 96/210/48 95/211/48 93/212/48
f 86/200/46 90/199/46 94/208/46 93/212/46
f 89/191/43 85/190/43 95/213/43 96/214/43
f 85/204/47 86/203/47 93/215/47 95/216/47
o Cube.008_Cube.014
v 2.911021 1.669300 -93.539810
v 2.911021 1.669300 -103.112549
v 2.911021 -1.669300 -93.539810
v 2.911021 -1.669300 -103.112549
v -6.661711 1.669300 -93.539810
v -6.661711 1.669300 -103.112549
v -6.661711 -1.669300 -93.539810
v -6.661711 -1.669300 -103.112549
v 2.911021 101.827301 -103.112541
v -6.661711 101.827301 -103.112541
v 2.911021 101.827301 -93.539810
v -6.661711 101.827301 -93.539810
vt 0.375000 0.000000
vt 0.625000 0.000000
vt 0.625000 0.250000
vt 0.375000 0.250000
vt 0.375000 0.250000
vt 0.625000 0.250000
vt 0.625000 0.500000
vt 0.375000 0.500000
vt 0.625000 0.750000
vt 0.375000 0.750000
vt 0.625000 0.750000
vt 0.625000 1.000000
vt 0.375000 1.000000
vt 0.125000 0.500000
vt 0.375000 0.500000
vt 0.375000 0.750000
vt 0.125000 0.750000
vt 0.625000 0.750000
vt 0.375000 0.750000
vt 0.625000 0.500000
vt 0.875000 0.500000
vt 0.875000 0.750000
vt 0.625000 0.750000
vt 0.375000 0.000000
vt 0.625000 0.000000
vt 0.125000 0.500000
vt 0.375000 0.500000
vn 0.0000 0.0000 1.0000
vn 0.0000 -1.0000 -0.0000
vn -1.0000 0.0000 0.0000
vn 0.0000 0.0000 -1.0000
vn 1.0000 0.0000 0.0000
vn 0.0000 1.0000 0.0000
usemtl Material.014
s off
f 97/217/49 101/218/49 103/219/49 99/220/49
f 100/221/50 99/222/50 103/223/50 104/224/50
f 104/224/51 103/223/51 101/225/51 102/226/51
f 102/226/52 98/227/52 100/228/52 104/229/52
f 98/230/53 97/231/53 99/232/53 100/233/53
f 102/226/51 101/225/51 108/234/51 106/235/51
f 106/236/54 108/237/54 107/238/54 105/239/54
f 98/227/52 102/226/52 106/235/52 105/239/52
f 101/218/49 97/217/49 107/240/49 108/241/49
f 97/231/53 98/230/53 105/242/53 107/243/53
o Cube.011_Cube.017
v 2.484926 102.844437 -1.669300
v 2.484926 93.271698 -1.669300
v 2.484926 102.844437 1.669300
v 2.484926 93.271698 1.669300
v -7.087806 102.844437 -1.669300
v -7.087806 93.271698 -1.669300
v -7.087806 102.844437 1.669300
v -7.087806 93.271698 1.669300
v 2.484926 93.271698 -101.827301
v -7.087806 93.271698 -101.827301
v 2.484926 102.844437 -101.827301
v -7.087806 102.844437 -101.827301
vt 0.375000 0.000000
vt 0.625000 0.000000
vt 0.625000 0.250000
vt 0.375000 0.250000
vt 0.375000 0.250000
vt 0.625000 0.250000
vt 0.625000 0.500000
vt 0.375000 0.500000
vt 0.625000 0.750000
vt 0.375000 0.750000
vt 0.625000 0.750000
vt 0.625000 1.000000
vt 0.375000 1.000000
vt 0.125000 0.500000
vt 0.375000 0.500000
vt 0.375000 0.750000
vt 0.125000 0.750000
vt 0.625000 0.750000
vt 0.375000 0.750000
vt 0.625000 0.500000
vt 0.875000 0.500000
vt 0.875000 0.750000
vt 0.625000 0.750000
vt 0.375000 0.000000
vt 0.625000 0.000000
vt 0.125000 0.500000
vt 0.375000 0.500000
vn 0.0000 1.0000 0.0000
vn 0.0000 0.0000 1.0000
vn -1.0000 0.0000 0.0000
vn 0.0000 -1.0000 0.0000
vn 1.0000 0.0000 0.0000
vn 0.0000 0.0000 -1.0000
usemtl Material.017
s off
f 109/244/55 113/245/55 115/246/55 111/247/55
f 112/248/56 111/249/56 115/250/56 116/251/56
f 116/251/57 115/250/57 113/252/57 114/253/57
f 114/253/58 110/254/58 112/255/58 116/256/58
f 110/257/59 109/258/59 111/259/59 112/260/59
f 114/253/57 113/252/57 120/261/57 118/262/57
f 118/263/60 120/264/60 119/265/60 117/266/60
f 110/254/58 114/253/58 118/262/58 117/266/58
f 113/245/55 109/244/55 119/267/55 120/268/55
f 109/258/59 110/257/59 117/269/59 119/270/59
o Cube.010_Cube.016
v 393.655701 93.271698 -94.088425
v 393.655701 93.271698 -103.661156
v 407.018616 93.271698 -94.088417
v 407.018616 93.271698 -103.661148
v 393.655701 102.844437 -94.088425
v 393.655701 102.844437 -103.661156
v 407.018616 102.844437 -94.088417
v 407.018616 102.844437 -103.661148
v -7.231506 93.271721 -103.661171
v -7.231506 102.844452 -103.661171
v -7.231506 93.271721 -94.088440
v -7.231506 102.844452 -94.088440
vt 0.375000 0.000000
vt 0.375000 0.250000
vt 0.625000 0.250000
vt 0.625000 0.000000
vt 0.375000 0.250000
vt 0.375000 0.500000
vt 0.625000 0.500000
vt 0.625000 0.250000
vt 0.375000 0.750000
vt 0.625000 0.750000
vt 0.375000 1.000000
vt 0.625000 1.000000
vt 0.625000 0.750000
vt 0.125000 0.500000
vt 0.125000 0.750000
vt 0.375000 0.750000
vt 0.375000 0.500000
vt 0.375000 0.750000
vt 0.625000 0.750000
vt 0.625000 0.500000
vt 0.625000 0.750000
vt 0.875000 0.750000
vt 0.875000 0.500000
vt 0.625000 0.000000
vt 0.375000 0.000000
vt 0.375000 0.500000
vt 0.125000 0.500000
vn -0.0000 0.0000 1.0000
vn 1.0000 0.0000 0.0000
vn 0.0000 1.0000 0.0000
vn 0.0000 0.0000 -1.0000
vn 0.0000 -1.0000 0.0000
vn -1.0000 0.0000 0.0000
usemtl Material.016
s off
f 121/271/61 123/272/61 127/273/61 125/274/61
f 124/275/62 128/276/62 127/277/62 123/278/62
f 128/276/63 126/279/63 125/280/63 127/277/63
f 126/279/64 128/281/64 124/282/64 122/283/64
f 122/284/65 124/285/65 123/286/65 121/287/65
f 126/279/63 130/288/63 132/289/63 125/280/63
f 130/290/66 129/291/66 131/292/66 132/293/66
f 122/283/64 129/291/64 130/288/64 126/279/64
f 125/274/61 132/294/61 131/295/61 121/271/61
f 121/287/65 131/296/65 129/297/65 122/284/65
o Cube.009_Cube.015
v 406.702881 102.844437 -1.669300
v 406.702881 93.271698 -1.669300
v 406.702881 102.844437 1.669300
v 406.702881 93.271698 1.669300
v 397.130127 102.844437 -1.669300
v 397.130127 93.271698 -1.669300
v 397.130127 102.844437 1.669300
v 397.130127 93.271698 1.669300
v 406.702881 93.271698 -101.827301
v 397.130127 93.271698 -101.827301
v 406.702881 102.844437 -101.827301
v 397.130127 102.844437 -101.827301
vt 0.375000 0.000000
vt 0.625000 0.000000
vt 0.625000 0.250000
vt 0.375000 0.250000
vt 0.375000 0.250000
vt 0.625000 0.250000
vt 0.625000 0.500000
vt 0.375000 0.500000
vt 0.625000 0.750000
vt 0.375000 0.750000
vt 0.625000 0.750000
vt 0.625000 1.000000
vt 0.375000 1.000000
vt 0.125000 0.500000
vt 0.375000 0.500000
vt 0.375000 0.750000
vt 0.125000 0.750000
vt 0.625000 0.750000
vt 0.375000 0.750000
vt 0.625000 0.500000
vt 0.875000 0.500000
vt 0.875000 0.750000
vt 0.625000 0.750000
vt 0.375000 0.000000
vt 0.625000 0.000000
vt 0.125000 0.500000
vt 0.375000 0.500000
vn 0.0000 1.0000 0.0000
vn 0.0000 0.0000 1.0000
vn -1.0000 0.0000 0.0000
vn 0.0000 -1.0000 0.0000
vn 1.0000 0.0000 0.0000
vn 0.0000 0.0000 -1.0000
usemtl Material.015
s off
f 133/298/67 137/299/67 139/300/67 135/301/67
f 136/302/68 135/303/68 139/304/68 140/305/68
f 140/305/69 139/304/69 137/306/69 138/307/69
f 138/307/70 134/308/70 136/309/70 140/310/70
f 134/311/71 133/312/71 135/313/71 136/314/71
f 138/307/69 137/306/69 144/315/69 142/316/69
f 142/317/72 144/318/72 143/319/72 141/320/72
f 134/308/70 138/307/70 142/316/70 141/320/70
f 137/299/67 133/298/67 143/321/67 144/322/67
f 133/312/71 134/311/71 141/323/71 143/324/71
o Cube.012_Cube.018
v 393.655701 93.271698 1.267727
v 393.655701 93.271698 -8.305005
v 407.018616 93.271698 1.267728
v 407.018616 93.271698 -8.305004
v 393.655701 102.844437 1.267727
v 393.655701 102.844437 -8.305005
v 407.018616 102.844437 1.267728
v 407.018616 102.844437 -8.305004
v -7.231506 93.271721 -8.305022
v -7.231506 102.844452 -8.305022
v -7.231506 93.271721 1.267710
v -7.231506 102.844452 1.267710
vt 0.375000 0.000000
vt 0.375000 0.250000
vt 0.625000 0.250000
vt 0.625000 0.000000
vt 0.375000 0.250000
vt 0.375000 0.500000
vt 0.625000 0.500000
vt 0.625000 0.250000
vt 0.375000 0.750000
vt 0.625000 0.750000
vt 0.375000 1.000000
vt 0.625000 1.000000
vt 0.625000 0.750000
vt 0.125000 0.500000
vt 0.125000 0.750000
vt 0.375000 0.750000
vt 0.375000 0.500000
vt 0.375000 0.750000
vt 0.625000 0.750000
vt 0.625000 0.500000
vt 0.625000 0.750000
vt 0.875000 0.750000
vt 0.875000 0.500000
vt 0.625000 0.000000
vt 0.375000 0.000000
vt 0.375000 0.500000
vt 0.125000 0.500000
vn -0.0000 0.0000 1.0000
vn 1.0000 0.0000 0.0000
vn 0.0000 1.0000 0.0000
vn 0.0000 0.0000 -1.0000
vn 0.0000 -1.0000 0.0000
vn -1.0000 0.0000 0.0000
usemtl Material.018
s off
f 145/325/73 147/326/73 151/327/73 149/328/73
f 148/329/74 152/330/74 151/331/74 147/332/74
f 152/330/75 150/333/75 149/334/75 151/331/75
f 150/333/76 152/335/76 148/336/76 146/337/76
f 146/338/77 148/339/77 147/340/77 145/341/77
f 150/333/75 154/342/75 156/343/75 149/334/75
f 154/344/78 153/345/78 155/346/78 156/347/78
f 146/337/76 153/345/76 154/342/76 150/333/76
f 149/328/73 156/348/73 155/349/73 145/325/73
f 145/341/77 155/350/77 153/351/77 146/338/77
o Cube.013_Cube.019
v -18.296415 102.524681 6.664997
v -18.296415 104.524681 6.664997
v -18.296415 102.524681 4.664997
v -18.296415 104.524681 4.664997
v -16.296415 102.524681 6.664997
v -16.296415 104.524681 6.664997
v -16.296415 102.524681 4.664997
v -18.296415 104.524681 -107.335007
v -18.296415 102.524681 -107.335007
v -16.296415 102.524681 -107.335007
v -16.296415 104.524681 -107.335007
v -18.296415 107.333221 6.664997
v -18.296415 107.333221 4.664997
v -16.296415 107.333221 6.664997
v -18.296415 107.333221 -107.335007
v -16.296415 107.333221 -107.335007
v 417.309021 104.524681 -107.335007
v 417.309021 107.333221 -107.335007
v 417.309021 104.524681 4.664997
v 417.309021 102.524681 4.664997
v 417.309021 102.524681 6.664997
v 417.309021 104.524681 6.664997
v 417.309021 102.524681 -107.335007
v 417.309021 107.333221 4.664997
v 417.309021 107.333221 6.664997
v 417.309021 109.161079 6.664997
v -16.296415 109.161079 6.664997
v -18.296415 109.161079 6.664997
v -18.296415 109.161079 4.664997
v -16.296415 109.161079 4.664997
v -18.296415 109.161079 -107.335007
v -16.296415 109.161079 -107.335007
v 417.309021 109.161079 4.664997
v 417.309021 109.161079 -107.335007
vt 0.375000 0.000000
vt 0.625000 0.000000
vt 0.625000 0.250000
vt 0.375000 0.250000
vt 0.625000 0.500000
vt 0.625000 0.250000
vt 0.625000 0.250000
vt 0.625000 0.500000
vt 0.625000 0.500000
vt 0.625000 0.500000
vt 0.625000 0.500000
vt 0.625000 0.500000
vt 0.375000 0.750000
vt 0.625000 0.750000
vt 0.625000 1.000000
vt 0.375000 1.000000
vt 0.125000 0.500000
vt 0.375000 0.500000
vt 0.125000 0.750000
vt 0.625000 0.500000
vt 0.375000 0.250000
vt 0.375000 0.500000
vt 0.375000 0.500000
vt 0.375000 0.750000
vt 0.125000 0.500000
vt 0.625000 1.000000
vt 0.625000 0.750000
vt 0.625000 0.750000
vt 0.625000 1.000000
vt 0.625000 0.750000
vt 0.625000 0.750000
vt 0.625000 0.750000
vt 0.625000 0.250000
vt 0.625000 0.000000
vt 0.625000 0.500000
vt 0.375000 0.500000
vt 0.625000 0.500000
vt 0.625000 0.500000
vt 0.875000 0.500000
vt 0.875000 0.500000
vt 0.875000 0.750000
vt 0.625000 0.250000
vt 0.625000 0.250000
vt 0.625000 0.000000
vn -1.0000 0.0000 0.0000
vn 0.0000 0.0000 -1.0000
vn 1.0000 0.0000 0.0000
vn 0.0000 0.0000 1.0000
vn 0.0000 -1.0000 0.0000
vn 0.0000 1.0000 0.0000
usemtl Material.001
s off
f 157/352/79 158/353/79 160/354/79 159/355/79
f 167/356/80 164/357/80 171/358/80 172/359/80
f 180/360/81 174/361/81 190/362/81 189/363/81
f 161/364/82 162/365/82 158/366/82 157/367/82
f 159/368/83 163/369/83 161/364/83 157/370/83
f 167/356/80 172/359/80 174/361/80 173/371/80
f 165/372/80 164/357/80 167/356/80 166/373/80
f 159/355/79 160/354/79 164/357/79 165/372/79
f 161/364/83 163/369/83 176/374/83 177/375/83
f 163/369/83 159/368/83 165/376/83 166/373/83
f 168/377/82 170/378/82 183/379/82 184/380/82
f 170/378/82 181/381/82 182/382/82 183/379/82
f 170/378/82 162/365/82 178/383/82 181/381/82
f 164/357/79 160/354/79 169/384/79 171/358/79
f 160/354/79 158/353/79 168/385/79 169/384/79
f 158/366/82 162/365/82 170/378/82 168/377/82
f 176/374/81 175/386/81 178/383/81 177/375/81
f 175/386/81 173/371/81 174/361/81 180/360/81
f 175/386/81 176/374/81 179/387/81 173/371/81
f 178/383/81 175/386/81 180/360/81 181/381/81
f 163/369/83 166/373/83 179/387/83 176/374/83
f 166/373/80 167/356/80 173/371/80 179/387/80
f 181/381/81 180/360/81 189/363/81 182/382/81
f 162/365/82 161/364/82 177/375/82 178/383/82
f 188/388/84 186/389/84 189/363/84 190/362/84
f 185/390/84 186/389/84 188/388/84 187/391/84
f 186/389/84 185/390/84 184/392/84 183/379/84
f 186/389/84 183/379/84 182/382/84 189/363/84
f 171/358/79 169/384/79 185/393/79 187/394/79
f 172/359/80 171/358/80 187/394/80 188/388/80
f 174/361/80 172/359/80 188/388/80 190/362/80
f 169/384/79 168/385/79 184/395/79 185/393/79
