{
    "asset" : {
        "generator" : "Khronos glTF Blender I/O v1.0.5",
        "version" : "2.0"
    },
    "scene" : 0,
    "scenes" : [
        {
            "name" : "Scene",
            "nodes" : [
                0,
                1,
                2,
                3,
                4,
                5,
                6,
                7,
                8,
                9,
                10,
                11,
                12,
                13
            ]
        }
    ],
    "nodes" : [
        {
            "name" : "Light",
            "rotation" : [
                0.16907575726509094,
                0.7558803558349609,
                -0.27217137813568115,
                0.570947527885437
            ],
            "translation" : [
                4.076245307922363,
                5.903861999511719,
                -1.0054539442062378
            ]
        },
        {
            "name" : "Camera",
            "rotation" : [
                0.483536034822464,
                0.33687159419059753,
                -0.20870360732078552,
                0.7804827094078064
            ],
            "translation" : [
                7.358891487121582,
                4.958309173583984,
                6.925790786743164
            ]
        },
        {
            "mesh" : 0,
            "name" : "Cube",
            "scale" : [
                1,
                0.3999999761581421,
                0.19999998807907104
            ]
        },
        {
            "mesh" : 1,
            "name" : "Cube.003",
            "scale" : [
                0.12499997764825821,
                0.12499997764825821,
                0.9499998092651367
            ],
            "translation" : [
                0.0035000001080334187,
                0.03739999979734421,
                0
            ]
        },
        {
            "mesh" : 2,
            "name" : "Cube.004",
            "scale" : [
                0.12499997764825821,
                0.12499997764825821,
                0.9499998092651367
            ],
            "translation" : [
                0.03500000014901161,
                0.03739999979734421,
                0
            ]
        },
        {
            "mesh" : 3,
            "name" : "Cube.005",
            "scale" : [
                0.12499997764825821,
                0.12499997764825821,
                0.9499998092651367
            ],
            "translation" : [
                0.06700000166893005,
                0.03739999979734421,
                0
            ]
        },
        {
            "mesh" : 4,
            "name" : "Cube.006",
            "scale" : [
                0.12499997764825821,
                0.12499997764825821,
                0.9499998092651367
            ],
            "translation" : [
                -0.029500000178813934,
                0.03739999979734421,
                0
            ]
        },
        {
            "mesh" : 5,
            "name" : "Cube.007",
            "scale" : [
                0.12499997764825821,
                0.12499997764825821,
                0.9499998092651367
            ],
            "translation" : [
                -0.06199999898672104,
                0.03739999979734421,
                0
            ]
        },
        {
            "mesh" : 6,
            "name" : "Cylinder",
            "scale" : [
                0.75,
                1,
                0.75
            ],
            "translation" : [
                -0.014000000432133675,
                0.01899999938905239,
                0
            ]
        },
        {
            "mesh" : 7,
            "name" : "Cylinder.001",
            "scale" : [
                0.75,
                1,
                0.75
            ],
            "translation" : [
                0.08250000327825546,
                0.01899999938905239,
                0
            ]
        },
        {
            "mesh" : 8,
            "name" : "Cylinder.002",
            "scale" : [
                0.75,
                1,
                0.75
            ],
            "translation" : [
                0.052500009536743164,
                0.01899999938905239,
                0
            ]
        },
        {
            "mesh" : 9,
            "name" : "Cylinder.003",
            "scale" : [
                0.75,
                1,
                0.75
            ],
            "translation" : [
                0.01899999938905239,
                0.01899999938905239,
                0
            ]
        },
        {
            "mesh" : 10,
            "name" : "Cylinder.004",
            "scale" : [
                0.75,
                1,
                0.75
            ],
            "translation" : [
                -0.045500002801418304,
                0.01899999938905239,
                0
            ]
        },
        {
            "mesh" : 11,
            "name" : "Cylinder.005",
            "scale" : [
                0.75,
                1,
                0.75
            ],
            "translation" : [
                -0.07749999314546585,
                0.01899999938905239,
                0
            ]
        }
    ],
    "materials" : [
        {
            "doubleSided" : true,
            "name" : "Material.001",
            "pbrMetallicRoughness" : {
                "baseColorFactor" : [
                    0.800000011920929,
                    0.800000011920929,
                    0.800000011920929,
                    1
                ],
                "metallicFactor" : 0,
                "roughnessFactor" : 0.5
            }
        },
        {
            "name" : "Material.007",
            "pbrMetallicRoughness" : {
                "baseColorFactor" : [
                    0.800000011920929,
                    0.800000011920929,
                    0.800000011920929,
                    1
                ],
                "metallicFactor" : 0,
                "roughnessFactor" : 0
            }
        }
    ],
    "meshes" : [
        {
            "name" : "Cube.001",
            "primitives" : [
                {
                    "attributes" : {
                        "POSITION" : 0,
                        "NORMAL" : 1,
                        "TEXCOORD_0" : 2
                    },
                    "indices" : 3,
                    "material" : 0
                }
            ]
        },
        {
            "name" : "Cube.004",
            "primitives" : [
                {
                    "attributes" : {
                        "POSITION" : 4,
                        "NORMAL" : 5,
                        "TEXCOORD_0" : 6
                    },
                    "indices" : 7,
                    "material" : 0
                }
            ]
        },
        {
            "name" : "Cube.005",
            "primitives" : [
                {
                    "attributes" : {
                        "POSITION" : 8,
                        "NORMAL" : 9,
                        "TEXCOORD_0" : 10
                    },
                    "indices" : 7,
                    "material" : 0
                }
            ]
        },
        {
            "name" : "Cube.006",
            "primitives" : [
                {
                    "attributes" : {
                        "POSITION" : 11,
                        "NORMAL" : 12,
                        "TEXCOORD_0" : 13
                    },
                    "indices" : 7,
                    "material" : 0
                }
            ]
        },
        {
            "name" : "Cube.007",
            "primitives" : [
                {
                    "attributes" : {
                        "POSITION" : 14,
                        "NORMAL" : 15,
                        "TEXCOORD_0" : 16
                    },
                    "indices" : 7,
                    "material" : 0
                }
            ]
        },
        {
            "name" : "Cube.008",
            "primitives" : [
                {
                    "attributes" : {
                        "POSITION" : 17,
                        "NORMAL" : 18,
                        "TEXCOORD_0" : 19
                    },
                    "indices" : 7,
                    "material" : 0
                }
            ]
        },
        {
            "name" : "Cylinder",
            "primitives" : [
                {
                    "attributes" : {
                        "POSITION" : 20,
                        "NORMAL" : 21,
                        "TEXCOORD_0" : 22
                    },
                    "indices" : 23,
                    "material" : 1
                }
            ]
        },
        {
            "name" : "Cylinder.001",
            "primitives" : [
                {
                    "attributes" : {
                        "POSITION" : 24,
                        "NORMAL" : 25,
                        "TEXCOORD_0" : 26
                    },
                    "indices" : 23,
                    "material" : 1
                }
            ]
        },
        {
            "name" : "Cylinder.002",
            "primitives" : [
                {
                    "attributes" : {
                        "POSITION" : 27,
                        "NORMAL" : 28,
                        "TEXCOORD_0" : 29
                    },
                    "indices" : 23,
                    "material" : 1
                }
            ]
        },
        {
            "name" : "Cylinder.003",
            "primitives" : [
                {
                    "attributes" : {
                        "POSITION" : 30,
                        "NORMAL" : 31,
                        "TEXCOORD_0" : 32
                    },
                    "indices" : 23,
                    "material" : 1
                }
            ]
        },
        {
            "name" : "Cylinder.004",
            "primitives" : [
                {
                    "attributes" : {
                        "POSITION" : 33,
                        "NORMAL" : 34,
                        "TEXCOORD_0" : 35
                    },
                    "indices" : 23,
                    "material" : 1
                }
            ]
        },
        {
            "name" : "Cylinder.005",
            "primitives" : [
                {
                    "attributes" : {
                        "POSITION" : 36,
                        "NORMAL" : 37,
                        "TEXCOORD_0" : 38
                    },
                    "indices" : 23,
                    "material" : 1
                }
            ]
        }
    ],
    "accessors" : [
        {
            "bufferView" : 0,
            "componentType" : 5126,
            "count" : 132,
            "max" : [
                0.10000000149011612,
                0.10000002384185791,
                0.10000000894069672
            ],
            "min" : [
                -0.10000000149011612,
                -0.10000000149011612,
                -0.10000002384185791
            ],
            "type" : "VEC3"
        },
        {
            "bufferView" : 1,
            "componentType" : 5126,
            "count" : 132,
            "type" : "VEC3"
        },
        {
            "bufferView" : 2,
            "componentType" : 5126,
            "count" : 132,
            "type" : "VEC2"
        },
        {
            "bufferView" : 3,
            "componentType" : 5123,
            "count" : 276,
            "type" : "SCALAR"
        },
        {
            "bufferView" : 4,
            "componentType" : 5126,
            "count" : 24,
            "max" : [
                0.020000003278255463,
                0.020000003278255463,
                0.020000003278255463
            ],
            "min" : [
                -0.020000003278255463,
                -0.020000003278255463,
                -0.020000003278255463
            ],
            "type" : "VEC3"
        },
        {
            "bufferView" : 5,
            "componentType" : 5126,
            "count" : 24,
            "type" : "VEC3"
        },
        {
            "bufferView" : 6,
            "componentType" : 5126,
            "count" : 24,
            "type" : "VEC2"
        },
        {
            "bufferView" : 7,
            "componentType" : 5123,
            "count" : 36,
            "type" : "SCALAR"
        },
        {
            "bufferView" : 8,
            "componentType" : 5126,
            "count" : 24,
            "max" : [
                0.020000003278255463,
                0.020000003278255463,
                0.020000003278255463
            ],
            "min" : [
                -0.020000003278255463,
                -0.020000003278255463,
                -0.020000003278255463
            ],
            "type" : "VEC3"
        },
        {
            "bufferView" : 9,
            "componentType" : 5126,
            "count" : 24,
            "type" : "VEC3"
        },
        {
            "bufferView" : 10,
            "componentType" : 5126,
            "count" : 24,
            "type" : "VEC2"
        },
        {
            "bufferView" : 11,
            "componentType" : 5126,
            "count" : 24,
            "max" : [
                0.020000003278255463,
                0.020000003278255463,
                0.020000003278255463
            ],
            "min" : [
                -0.020000003278255463,
                -0.020000003278255463,
                -0.020000003278255463
            ],
            "type" : "VEC3"
        },
        {
            "bufferView" : 12,
            "componentType" : 5126,
            "count" : 24,
            "type" : "VEC3"
        },
        {
            "bufferView" : 13,
            "componentType" : 5126,
            "count" : 24,
            "type" : "VEC2"
        },
        {
            "bufferView" : 14,
            "componentType" : 5126,
            "count" : 24,
            "max" : [
                0.020000003278255463,
                0.020000003278255463,
                0.020000003278255463
            ],
            "min" : [
                -0.020000003278255463,
                -0.020000003278255463,
                -0.020000003278255463
            ],
            "type" : "VEC3"
        },
        {
            "bufferView" : 15,
            "componentType" : 5126,
            "count" : 24,
            "type" : "VEC3"
        },
        {
            "bufferView" : 16,
            "componentType" : 5126,
            "count" : 24,
            "type" : "VEC2"
        },
        {
            "bufferView" : 17,
            "componentType" : 5126,
            "count" : 24,
            "max" : [
                0.020000003278255463,
                0.020000003278255463,
                0.020000003278255463
            ],
            "min" : [
                -0.020000003278255463,
                -0.020000003278255463,
                -0.020000003278255463
            ],
            "type" : "VEC3"
        },
        {
            "bufferView" : 18,
            "componentType" : 5126,
            "count" : 24,
            "type" : "VEC3"
        },
        {
            "bufferView" : 19,
            "componentType" : 5126,
            "count" : 24,
            "type" : "VEC2"
        },
        {
            "bufferView" : 20,
            "componentType" : 5126,
            "count" : 807,
            "max" : [
                0.014999999664723873,
                0.03999999910593033,
                0.014999999664723873
            ],
            "min" : [
                -0.014999999664723873,
                -0.04999997466802597,
                -0.014999999664723873
            ],
            "type" : "VEC3"
        },
        {
            "bufferView" : 21,
            "componentType" : 5126,
            "count" : 807,
            "type" : "VEC3"
        },
        {
            "bufferView" : 22,
            "componentType" : 5126,
            "count" : 807,
            "type" : "VEC2"
        },
        {
            "bufferView" : 23,
            "componentType" : 5123,
            "count" : 3894,
            "type" : "SCALAR"
        },
        {
            "bufferView" : 24,
            "componentType" : 5126,
            "count" : 807,
            "max" : [
                0.014999999664723873,
                0.03999999910593033,
                0.014999999664723873
            ],
            "min" : [
                -0.014999999664723873,
                -0.04999997466802597,
                -0.014999999664723873
            ],
            "type" : "VEC3"
        },
        {
            "bufferView" : 25,
            "componentType" : 5126,
            "count" : 807,
            "type" : "VEC3"
        },
        {
            "bufferView" : 26,
            "componentType" : 5126,
            "count" : 807,
            "type" : "VEC2"
        },
        {
            "bufferView" : 27,
            "componentType" : 5126,
            "count" : 807,
            "max" : [
                0.014999999664723873,
                0.03999999910593033,
                0.014999999664723873
            ],
            "min" : [
                -0.014999999664723873,
                -0.04999997466802597,
                -0.014999999664723873
            ],
            "type" : "VEC3"
        },
        {
            "bufferView" : 28,
            "componentType" : 5126,
            "count" : 807,
            "type" : "VEC3"
        },
        {
            "bufferView" : 29,
            "componentType" : 5126,
            "count" : 807,
            "type" : "VEC2"
        },
        {
            "bufferView" : 30,
            "componentType" : 5126,
            "count" : 807,
            "max" : [
                0.014999999664723873,
                0.03999999910593033,
                0.014999999664723873
            ],
            "min" : [
                -0.014999999664723873,
                -0.04999997466802597,
                -0.014999999664723873
            ],
            "type" : "VEC3"
        },
        {
            "bufferView" : 31,
            "componentType" : 5126,
            "count" : 807,
            "type" : "VEC3"
        },
        {
            "bufferView" : 32,
            "componentType" : 5126,
            "count" : 807,
            "type" : "VEC2"
        },
        {
            "bufferView" : 33,
            "componentType" : 5126,
            "count" : 807,
            "max" : [
                0.014999999664723873,
                0.03999999910593033,
                0.014999999664723873
            ],
            "min" : [
                -0.014999999664723873,
                -0.04999997466802597,
                -0.014999999664723873
            ],
            "type" : "VEC3"
        },
        {
            "bufferView" : 34,
            "componentType" : 5126,
            "count" : 807,
            "type" : "VEC3"
        },
        {
            "bufferView" : 35,
            "componentType" : 5126,
            "count" : 807,
            "type" : "VEC2"
        },
        {
            "bufferView" : 36,
            "componentType" : 5126,
            "count" : 807,
            "max" : [
                0.014999999664723873,
                0.03999999910593033,
                0.014999999664723873
            ],
            "min" : [
                -0.014999999664723873,
                -0.04999997466802597,
                -0.014999999664723873
            ],
            "type" : "VEC3"
        },
        {
            "bufferView" : 37,
            "componentType" : 5126,
            "count" : 807,
            "type" : "VEC3"
        },
        {
            "bufferView" : 38,
            "componentType" : 5126,
            "count" : 807,
            "type" : "VEC2"
        }
    ],
    "bufferViews" : [
        {
            "buffer" : 0,
            "byteLength" : 1584,
            "byteOffset" : 0
        },
        {
            "buffer" : 0,
            "byteLength" : 1584,
            "byteOffset" : 1584
        },
        {
            "buffer" : 0,
            "byteLength" : 1056,
            "byteOffset" : 3168
        },
        {
            "buffer" : 0,
            "byteLength" : 552,
            "byteOffset" : 4224
        },
        {
            "buffer" : 0,
            "byteLength" : 288,
            "byteOffset" : 4776
        },
        {
            "buffer" : 0,
            "byteLength" : 288,
            "byteOffset" : 5064
        },
        {
            "buffer" : 0,
            "byteLength" : 192,
            "byteOffset" : 5352
        },
        {
            "buffer" : 0,
            "byteLength" : 72,
            "byteOffset" : 5544
        },
        {
            "buffer" : 0,
            "byteLength" : 288,
            "byteOffset" : 5616
        },
        {
            "buffer" : 0,
            "byteLength" : 288,
            "byteOffset" : 5904
        },
        {
            "buffer" : 0,
            "byteLength" : 192,
            "byteOffset" : 6192
        },
        {
            "buffer" : 0,
            "byteLength" : 288,
            "byteOffset" : 6384
        },
        {
            "buffer" : 0,
            "byteLength" : 288,
            "byteOffset" : 6672
        },
        {
            "buffer" : 0,
            "byteLength" : 192,
            "byteOffset" : 6960
        },
        {
            "buffer" : 0,
            "byteLength" : 288,
            "byteOffset" : 7152
        },
        {
            "buffer" : 0,
            "byteLength" : 288,
            "byteOffset" : 7440
        },
        {
            "buffer" : 0,
            "byteLength" : 192,
            "byteOffset" : 7728
        },
        {
            "buffer" : 0,
            "byteLength" : 288,
            "byteOffset" : 7920
        },
        {
            "buffer" : 0,
            "byteLength" : 288,
            "byteOffset" : 8208
        },
        {
            "buffer" : 0,
            "byteLength" : 192,
            "byteOffset" : 8496
        },
        {
            "buffer" : 0,
            "byteLength" : 9684,
            "byteOffset" : 8688
        },
        {
            "buffer" : 0,
            "byteLength" : 9684,
            "byteOffset" : 18372
        },
        {
            "buffer" : 0,
            "byteLength" : 6456,
            "byteOffset" : 28056
        },
        {
            "buffer" : 0,
            "byteLength" : 7788,
            "byteOffset" : 34512
        },
        {
            "buffer" : 0,
            "byteLength" : 9684,
            "byteOffset" : 42300
        },
        {
            "buffer" : 0,
            "byteLength" : 9684,
            "byteOffset" : 51984
        },
        {
            "buffer" : 0,
            "byteLength" : 6456,
            "byteOffset" : 61668
        },
        {
            "buffer" : 0,
            "byteLength" : 9684,
            "byteOffset" : 68124
        },
        {
            "buffer" : 0,
            "byteLength" : 9684,
            "byteOffset" : 77808
        },
        {
            "buffer" : 0,
            "byteLength" : 6456,
            "byteOffset" : 87492
        },
        {
            "buffer" : 0,
            "byteLength" : 9684,
            "byteOffset" : 93948
        },
        {
            "buffer" : 0,
            "byteLength" : 9684,
            "byteOffset" : 103632
        },
        {
            "buffer" : 0,
            "byteLength" : 6456,
            "byteOffset" : 113316
        },
        {
            "buffer" : 0,
            "byteLength" : 9684,
            "byteOffset" : 119772
        },
        {
            "buffer" : 0,
            "byteLength" : 9684,
            "byteOffset" : 129456
        },
        {
            "buffer" : 0,
            "byteLength" : 6456,
            "byteOffset" : 139140
        },
        {
            "buffer" : 0,
            "byteLength" : 9684,
            "byteOffset" : 145596
        },
        {
            "buffer" : 0,
            "byteLength" : 9684,
            "byteOffset" : 155280
        },
        {
            "buffer" : 0,
            "byteLength" : 6456,
            "byteOffset" : 164964
        }
    ],
    "buffers" : [
        {
            "byteLength" : 171420,
            "uri" : "data:application/octet-stream;base64,"
        }
    ]
}
